<svg version="1.1" xmlns="http://www.w3.org/2000/svg" viewBox="0 0 1303.75 1805" width="1303.75" height="1805">
  <!-- svg-source:excalidraw -->
  
  <defs>
    <style class="style-fonts">
      @font-face {
        font-family: "Virgil";
        src: url("https://excalidraw.com/Virgil.woff2");
      }
      @font-face {
        font-family: "Cascadia";
        src: url("https://excalidraw.com/Cascadia.woff2");
      }
      @font-face {
        font-family: "Assistant";
        src: url("https://excalidraw.com/Assistant-Regular.woff2");
      }
    </style>
    
  </defs>
  <rect x="0" y="0" width="1303.75" height="1805" fill="#ffffff"></rect><g stroke-linecap="round" transform="translate(10 27.5) rotate(0 148.75 253.75)"><path d="M32 0 C95.36 0.52, 161.64 -0.76, 265.5 0 M32 0 C124.37 -2.49, 217.11 -1.57, 265.5 0 M265.5 0 C284.97 -1.28, 296.13 9.31, 297.5 32 M265.5 0 C289.04 0, 299.27 8.57, 297.5 32 M297.5 32 C295.09 156.08, 296.59 282.43, 297.5 475.5 M297.5 32 C295.79 153.08, 296.17 274.89, 297.5 475.5 M297.5 475.5 C295.86 498.11, 286.64 507.72, 265.5 507.5 M297.5 475.5 C296.05 495.64, 287.66 506.41, 265.5 507.5 M265.5 507.5 C210.63 508.25, 158.28 509.09, 32 507.5 M265.5 507.5 C215.34 507.54, 166.14 508.58, 32 507.5 M32 507.5 C12.47 506.85, 1.16 495.12, 0 475.5 M32 507.5 C12.43 508.21, 1.6 495.86, 0 475.5 M0 475.5 C1.48 317.02, 0.26 160.6, 0 32 M0 475.5 C-0.01 335.66, -0.05 196.23, 0 32 M0 32 C1.91 10.88, 12.25 -0.63, 32 0 M0 32 C0.3 9.63, 8.63 0.71, 32 0" stroke="#000000" stroke-width="1" fill="none"></path></g><g transform="translate(106.25 72.5) rotate(0 46.609954833984375 12.5)"><text x="0" y="0" font-family="Virgil, Segoe UI Emoji" font-size="20px" fill="#000000" text-anchor="start" style="white-space: pre;" direction="ltr" dominant-baseline="text-before-edge">HomePage</text></g><g transform="translate(125 241.25) rotate(0 28.559967041015625 37.5)"><text x="0" y="0" font-family="Virgil, Segoe UI Emoji" font-size="20px" fill="#000000" text-anchor="start" style="white-space: pre;" direction="ltr" dominant-baseline="text-before-edge">Login</text><text x="0" y="25" font-family="Virgil, Segoe UI Emoji" font-size="20px" fill="#000000" text-anchor="start" style="white-space: pre;" direction="ltr" dominant-baseline="text-before-edge"></text><text x="0" y="50" font-family="Virgil, Segoe UI Emoji" font-size="20px" fill="#000000" text-anchor="start" style="white-space: pre;" direction="ltr" dominant-baseline="text-before-edge">Signup</text></g><g transform="translate(71.25 131.25) rotate(0 89.74991607666016 12.5)"><text x="0" y="0" font-family="Virgil, Segoe UI Emoji" font-size="20px" fill="#000000" text-anchor="start" style="white-space: pre;" direction="ltr" dominant-baseline="text-before-edge">your daily workout</text></g><g stroke-linecap="round" transform="translate(667.5 10) rotate(0 136.875 254.375)"><path d="M32 0 C112.19 -0.42, 190.9 1.2, 241.75 0 M32 0 C95.43 -0.4, 160.85 -1.18, 241.75 0 M241.75 0 C262.74 -1.07, 273.67 8.96, 273.75 32 M241.75 0 C262.51 1.84, 273.66 11.38, 273.75 32 M273.75 32 C273.26 189.87, 273.42 348.16, 273.75 476.75 M273.75 32 C274.41 148.15, 274.6 263.8, 273.75 476.75 M273.75 476.75 C273.29 499.02, 261.33 508.09, 241.75 508.75 M273.75 476.75 C275.33 496.86, 260.85 509.55, 241.75 508.75 M241.75 508.75 C186 509.5, 130.35 508.21, 32 508.75 M241.75 508.75 C159.62 509.76, 77.62 508.31, 32 508.75 M32 508.75 C11.68 509.73, -0.6 499.81, 0 476.75 M32 508.75 C11.81 506.63, -0.32 499.56, 0 476.75 M0 476.75 C1.57 372.83, 0.15 267.74, 0 32 M0 476.75 C0.66 300.07, 0.58 123.59, 0 32 M0 32 C1.44 9.8, 12.13 -0.9, 32 0 M0 32 C1.81 10.78, 12.51 0.06, 32 0" stroke="#000000" stroke-width="1" fill="none"></path></g><g transform="translate(671.25 157.5) rotate(0 63.28246307373047 10.625)"><text x="0" y="0" font-family="Virgil, Segoe UI Emoji" font-size="17px" fill="#000000" text-anchor="start" style="white-space: pre;" direction="ltr" dominant-baseline="text-before-edge">Workout Detail</text></g><g transform="translate(687.5 160) rotate(0 67.11994171142578 87.5)"><text x="0" y="0" font-family="Virgil, Segoe UI Emoji" font-size="20px" fill="#000000" text-anchor="start" style="white-space: pre;" direction="ltr" dominant-baseline="text-before-edge"></text><text x="0" y="25" font-family="Virgil, Segoe UI Emoji" font-size="20px" fill="#000000" text-anchor="start" style="white-space: pre;" direction="ltr" dominant-baseline="text-before-edge">Strength</text><text x="0" y="50" font-family="Virgil, Segoe UI Emoji" font-size="20px" fill="#000000" text-anchor="start" style="white-space: pre;" direction="ltr" dominant-baseline="text-before-edge">Cardio</text><text x="0" y="75" font-family="Virgil, Segoe UI Emoji" font-size="20px" fill="#000000" text-anchor="start" style="white-space: pre;" direction="ltr" dominant-baseline="text-before-edge">HIIT workout</text><text x="0" y="100" font-family="Virgil, Segoe UI Emoji" font-size="20px" fill="#000000" text-anchor="start" style="white-space: pre;" direction="ltr" dominant-baseline="text-before-edge"></text><text x="0" y="125" font-family="Virgil, Segoe UI Emoji" font-size="20px" fill="#000000" text-anchor="start" style="white-space: pre;" direction="ltr" dominant-baseline="text-before-edge">Yoga</text><text x="0" y="150" font-family="Virgil, Segoe UI Emoji" font-size="20px" fill="#000000" text-anchor="start" style="white-space: pre;" direction="ltr" dominant-baseline="text-before-edge"></text></g><g stroke-linecap="round" transform="translate(538.75 690) rotate(0 167.5 253.125)"><path d="M32 0 C90.52 2.27, 150.75 1.99, 303 0 M32 0 C110.88 0.45, 190.35 0.26, 303 0 M303 0 C322.6 -0.47, 333.56 10.71, 335 32 M303 0 C323.08 1.64, 335.21 12.72, 335 32 M335 32 C333.79 181.11, 333.39 331.13, 335 474.25 M335 32 C336.42 142.2, 336.06 253.15, 335 474.25 M335 474.25 C333.08 496.46, 325.88 507.41, 303 506.25 M335 474.25 C335.81 496.08, 322.11 505.47, 303 506.25 M303 506.25 C218 502.69, 132.8 502.92, 32 506.25 M303 506.25 C200.62 505.23, 98.11 506.07, 32 506.25 M32 506.25 C12.46 507.88, 1.2 496.01, 0 474.25 M32 506.25 C9.11 508.16, -0.92 497.44, 0 474.25 M0 474.25 C2.76 370, 2.01 266.8, 0 32 M0 474.25 C-0.25 383.75, -0.23 292.45, 0 32 M0 32 C-0.05 9.84, 8.81 -0.18, 32 0 M0 32 C1.22 10.75, 12.06 1.14, 32 0" stroke="#000000" stroke-width="1" fill="none"></path></g><g transform="translate(695 35) rotate(0 47.687965393066406 10)"><text x="0" y="0" font-family="Virgil, Segoe UI Emoji" font-size="16px" fill="#000000" text-anchor="start" style="white-space: pre;" direction="ltr" dominant-baseline="text-before-edge">user details</text></g><g stroke-linecap="round" transform="translate(571.25 787.5) rotate(0 41.875 102.5)"><path d="M20.94 0 C35.16 1.8, 51.81 -1.38, 62.81 0 M20.94 0 C31.2 0.4, 39.67 0.34, 62.81 0 M62.81 0 C78.19 1.5, 82.88 7.16, 83.75 20.94 M62.81 0 C77.78 -0.36, 84.81 5.44, 83.75 20.94 M83.75 20.94 C86.59 53.28, 85.86 90, 83.75 184.06 M83.75 20.94 C83.97 59.52, 84.37 97.29, 83.75 184.06 M83.75 184.06 C82.09 199.53, 76.53 204.33, 62.81 205 M83.75 184.06 C83.91 198.15, 78.83 205.73, 62.81 205 M62.81 205 C54.61 206.23, 45.88 203.3, 20.94 205 M62.81 205 C52.42 205.22, 43.37 204.56, 20.94 205 M20.94 205 C5.39 205.74, -0.77 197.97, 0 184.06 M20.94 205 C5.59 206.66, 0.37 199.51, 0 184.06 M0 184.06 C1.68 128.05, -1.53 73, 0 20.94 M0 184.06 C1.12 149.75, 1.03 115.36, 0 20.94 M0 20.94 C1.31 7.21, 5.67 -1.72, 20.94 0 M0 20.94 C1.21 6.47, 8.61 0.61, 20.94 0" stroke="#000000" stroke-width="1" fill="none"></path></g><g stroke-linecap="round" transform="translate(681.25 783.75) rotate(0 40.625 107.5)"><path d="M20.31 0 C34.54 -0.7, 45.09 0.28, 60.94 0 M20.31 0 C33.84 0.57, 46.57 -1.32, 60.94 0 M60.94 0 C73.5 -1.9, 80.43 6.69, 81.25 20.31 M60.94 0 C75.52 -0.41, 82.2 6.05, 81.25 20.31 M81.25 20.31 C80.97 55.66, 79.5 93.85, 81.25 194.69 M81.25 20.31 C82.67 69, 82.5 117.74, 81.25 194.69 M81.25 194.69 C82.43 208.45, 75.18 214.48, 60.94 215 M81.25 194.69 C81.35 206.52, 75.59 216.4, 60.94 215 M60.94 215 C50.52 214.26, 41.99 216.22, 20.31 215 M60.94 215 C46.13 214.98, 30.36 215.04, 20.31 215 M20.31 215 C6.95 214.31, 1.19 208.59, 0 194.69 M20.31 215 C8.14 214.03, -0.05 206.23, 0 194.69 M0 194.69 C-0.27 153.73, 1.82 115.38, 0 20.31 M0 194.69 C0.98 143.32, 0.06 91.26, 0 20.31 M0 20.31 C-0.81 7.74, 5.69 1.35, 20.31 0 M0 20.31 C2.27 5.83, 6.11 0.63, 20.31 0" stroke="#000000" stroke-width="1" fill="none"></path></g><g stroke-linecap="round" transform="translate(787.5 782.5) rotate(0 35.625 103.75)"><path d="M17.81 0 C25.96 -0.37, 36.96 1.75, 53.44 0 M17.81 0 C31.88 -0.11, 45.29 -0.56, 53.44 0 M53.44 0 C64.8 -1.81, 70.39 7.5, 71.25 17.81 M53.44 0 C63.62 1.52, 72.56 5.19, 71.25 17.81 M71.25 17.81 C69.35 86.2, 68.12 153.42, 71.25 189.69 M71.25 17.81 C70.61 74.08, 70.81 131.7, 71.25 189.69 M71.25 189.69 C72.97 203.04, 66.57 208.99, 53.44 207.5 M71.25 189.69 C70.61 201.58, 66.5 208.06, 53.44 207.5 M53.44 207.5 C39.74 206.4, 26.2 206.67, 17.81 207.5 M53.44 207.5 C45.56 207.89, 36.49 206.62, 17.81 207.5 M17.81 207.5 C7.72 209.32, -0.13 201.46, 0 189.69 M17.81 207.5 C4.91 207.47, -1.57 201.44, 0 189.69 M0 189.69 C-1.51 139.11, 0.12 91.68, 0 17.81 M0 189.69 C-0.98 142.98, -1.81 97.96, 0 17.81 M0 17.81 C0.03 7.43, 6.63 -1.98, 17.81 0 M0 17.81 C1.11 4.79, 5.38 1.8, 17.81 0" stroke="#000000" stroke-width="1" fill="none"></path></g><g transform="translate(596.25 810) rotate(0 13.239990234375 10)"><text x="0" y="0" font-family="Virgil, Segoe UI Emoji" font-size="16px" fill="#000000" text-anchor="start" style="white-space: pre;" direction="ltr" dominant-baseline="text-before-edge">set</text></g><g transform="translate(682.5 806.25) rotate(0 36.84797668457031 10)"><text x="0" y="0" font-family="Virgil, Segoe UI Emoji" font-size="16px" fill="#000000" text-anchor="start" style="white-space: pre;" direction="ltr" dominant-baseline="text-before-edge">repetition</text></g><g transform="translate(800 810) rotate(0 23.47998046875 10)"><text x="0" y="0" font-family="Virgil, Segoe UI Emoji" font-size="16px" fill="#000000" text-anchor="start" style="white-space: pre;" direction="ltr" dominant-baseline="text-before-edge">weight</text></g><g transform="translate(567.5 721.25) rotate(0 47.687965393066406 10)"><text x="0" y="0" font-family="Virgil, Segoe UI Emoji" font-size="16px" fill="#000000" text-anchor="start" style="white-space: pre;" direction="ltr" dominant-baseline="text-before-edge">user details</text></g><g transform="translate(828.75 156.25) rotate(0 51.18995666503906 75)"><text x="0" y="0" font-family="Virgil, Segoe UI Emoji" font-size="20px" fill="#000000" text-anchor="start" style="white-space: pre;" direction="ltr" dominant-baseline="text-before-edge">Food</text><text x="0" y="25" font-family="Virgil, Segoe UI Emoji" font-size="20px" fill="#000000" text-anchor="start" style="white-space: pre;" direction="ltr" dominant-baseline="text-before-edge"></text><text x="0" y="50" font-family="Virgil, Segoe UI Emoji" font-size="20px" fill="#000000" text-anchor="start" style="white-space: pre;" direction="ltr" dominant-baseline="text-before-edge">Breakfast</text><text x="0" y="75" font-family="Virgil, Segoe UI Emoji" font-size="20px" fill="#000000" text-anchor="start" style="white-space: pre;" direction="ltr" dominant-baseline="text-before-edge">Lunch</text><text x="0" y="100" font-family="Virgil, Segoe UI Emoji" font-size="20px" fill="#000000" text-anchor="start" style="white-space: pre;" direction="ltr" dominant-baseline="text-before-edge">Dinner</text><text x="0" y="125" font-family="Virgil, Segoe UI Emoji" font-size="20px" fill="#000000" text-anchor="start" style="white-space: pre;" direction="ltr" dominant-baseline="text-before-edge">Snack</text></g><g stroke-linecap="round" transform="translate(720 1135) rotate(0 60 19.375)"><path d="M9.69 0 C49.13 1.12, 90.26 0.79, 110.31 0 M9.69 0 C38.55 0.68, 69.29 1.24, 110.31 0 M110.31 0 C115.42 0.27, 119.28 1.47, 120 9.69 M110.31 0 C117.94 1.48, 121.92 1.71, 120 9.69 M120 9.69 C118.54 13.16, 118.49 18.9, 120 29.06 M120 9.69 C119.36 16.48, 120.02 22.37, 120 29.06 M120 29.06 C121.31 35.22, 118.16 40.51, 110.31 38.75 M120 29.06 C120.98 37.5, 114.96 38.92, 110.31 38.75 M110.31 38.75 C86.83 37.31, 61.82 38.32, 9.69 38.75 M110.31 38.75 C87.08 38.79, 66.27 39.14, 9.69 38.75 M9.69 38.75 C4.05 38.36, 1 35.24, 0 29.06 M9.69 38.75 C4.74 38.95, -1.98 37.73, 0 29.06 M0 29.06 C-0.62 23.43, -1.97 13.83, 0 9.69 M0 29.06 C-0.56 23.74, 0.77 17.38, 0 9.69 M0 9.69 C0.7 2.02, 4.18 -1.71, 9.69 0 M0 9.69 C-2.09 1.54, 2.74 2.28, 9.69 0" stroke="#000000" stroke-width="1" fill="none"></path></g><g transform="translate(736.8000335693359 1141.875) rotate(0 43.19996643066406 12.5)"><text x="43.19996643066406" y="0" font-family="Virgil, Segoe UI Emoji" font-size="20px" fill="#000000" text-anchor="middle" style="white-space: pre;" direction="ltr" dominant-baseline="text-before-edge">save btn</text></g><g stroke-linecap="round"><g transform="translate(688.75 194.80082825871045) rotate(0 -42.63341587461554 241.34958587064477)"><path d="M-0.33 -0.84 C-14.68 79.57, -70.85 402.83, -84.92 483.6 M1.69 1.33 C-12.88 81.92, -71.2 401.83, -85.68 481.95" stroke="#000000" stroke-width="1" fill="none"></path></g><g transform="translate(688.75 194.80082825871045) rotate(0 -42.63341587461554 241.34958587064477)"><path d="M-89.9 457.31 C-89.39 467.61, -84.83 477.64, -85.68 481.95 M-89.9 457.31 C-87.92 466.28, -86.04 476.62, -85.68 481.95" stroke="#000000" stroke-width="1" fill="none"></path></g><g transform="translate(688.75 194.80082825871045) rotate(0 -42.63341587461554 241.34958587064477)"><path d="M-73.07 460.37 C-79.23 469.42, -81.29 478.24, -85.68 481.95 M-73.07 460.37 C-77.7 468.29, -82.44 477.43, -85.68 481.95" stroke="#000000" stroke-width="1" fill="none"></path></g></g><mask></mask><g stroke-linecap="round"><g transform="translate(732.5 226.25) rotate(0 156.875 222.5)"><path d="M-0.32 -0.14 C52.24 74.14, 261.85 370.52, 314.3 444.8 M1.71 -1.25 C54.26 73.29, 261.6 372.11, 313.64 446.24" stroke="#000000" stroke-width="1" fill="none"></path></g><g transform="translate(732.5 226.25) rotate(0 156.875 222.5)"><path d="M293.19 431.86 C297.15 435.86, 301.35 439.06, 313.64 446.24 M293.19 431.86 C301.2 437.13, 307.23 441.05, 313.64 446.24" stroke="#000000" stroke-width="1" fill="none"></path></g><g transform="translate(732.5 226.25) rotate(0 156.875 222.5)"><path d="M307.22 422.08 C308.17 428.09, 309.41 433.35, 313.64 446.24 M307.22 422.08 C310.35 430.84, 311.5 438.16, 313.64 446.24" stroke="#000000" stroke-width="1" fill="none"></path></g></g><mask></mask><g stroke-linecap="round" transform="translate(982.5 690) rotate(0 155.625 261.25)"><path d="M32 0 C104.38 -2.23, 177.8 -2.37, 279.25 0 M32 0 C125.68 -0.55, 220.17 -0.78, 279.25 0 M279.25 0 C298.74 1.23, 310.57 9.07, 311.25 32 M279.25 0 C299.66 -1.51, 309.6 11.01, 311.25 32 M311.25 32 C311.14 175.82, 310.23 318.31, 311.25 490.5 M311.25 32 C312.9 192.26, 313.39 351.37, 311.25 490.5 M311.25 490.5 C312.11 509.91, 299.87 521.08, 279.25 522.5 M311.25 490.5 C312.13 512.71, 302.42 520.37, 279.25 522.5 M279.25 522.5 C212.53 523.32, 142.52 521.41, 32 522.5 M279.25 522.5 C226.27 523.93, 171.27 523.34, 32 522.5 M32 522.5 C9.1 521.31, 0.26 513.05, 0 490.5 M32 522.5 C12.77 523.06, 0.06 509.87, 0 490.5 M0 490.5 C-0.76 337.55, 0.71 183.35, 0 32 M0 490.5 C-1.31 334.29, -2.07 177.56, 0 32 M0 32 C-1.3 11.75, 10.36 -1.33, 32 0 M0 32 C2.07 8.97, 10.36 -0.73, 32 0" stroke="#000000" stroke-width="1" fill="none"></path></g><g transform="translate(1011.25 726.25) rotate(0 47.687965393066406 10)"><text x="0" y="0" font-family="Virgil, Segoe UI Emoji" font-size="16px" fill="#000000" text-anchor="start" style="white-space: pre;" direction="ltr" dominant-baseline="text-before-edge">user details</text></g><g stroke-linecap="round" transform="translate(1007.5 781.25) rotate(0 130 40)"><path d="M20 0 C70.57 2.76, 117.7 1.96, 240 0 M20 0 C81.84 -0.67, 144.94 -0.34, 240 0 M240 0 C251.7 0.98, 261.79 7.63, 260 20 M240 0 C253.4 -1.78, 257.71 5.42, 260 20 M260 20 C260.95 35.13, 258.63 46.31, 260 60 M260 20 C259.82 31.08, 259.25 41.93, 260 60 M260 60 C261.33 71.96, 251.46 81.74, 240 80 M260 60 C261.5 73.56, 254.84 78.42, 240 80 M240 80 C170.12 79.71, 99.27 79.77, 20 80 M240 80 C169.77 78.28, 98.64 78.89, 20 80 M20 80 C4.78 80.42, -1.68 71.51, 0 60 M20 80 C6.83 80.37, 0.92 72.8, 0 60 M0 60 C0.14 47.24, -1.38 33.73, 0 20 M0 60 C-0.71 46.74, 0.46 36.18, 0 20 M0 20 C1.01 5.17, 8.07 1.97, 20 0 M0 20 C-1.46 6.35, 4.5 1.59, 20 0" stroke="#000000" stroke-width="1" fill="none"></path></g><g transform="translate(1012.5 811.25) rotate(0 111.91993713378906 10)"><text x="0" y="0" font-family="Virgil, Segoe UI Emoji" font-size="16px" fill="#000000" text-anchor="start" style="white-space: pre;" direction="ltr" dominant-baseline="text-before-edge">type of cardio (select menu)</text></g><g stroke-linecap="round" transform="translate(1003.75 890) rotate(0 136.875 39.375)"><path d="M19.69 0 C67.31 -1.92, 118.67 -0.5, 254.06 0 M19.69 0 C96.57 -1.52, 172.38 -1.08, 254.06 0 M254.06 0 C269.12 0.93, 275.21 6.69, 273.75 19.69 M254.06 0 C267.18 -0.16, 276.04 4.82, 273.75 19.69 M273.75 19.69 C271.66 28.79, 272.46 38.24, 273.75 59.06 M273.75 19.69 C272.79 29.07, 273.23 36.29, 273.75 59.06 M273.75 59.06 C274.52 70.25, 267.09 79.99, 254.06 78.75 M273.75 59.06 C274.55 72.16, 267.65 76.47, 254.06 78.75 M254.06 78.75 C163.48 78.96, 72.24 78.93, 19.69 78.75 M254.06 78.75 C163.34 79.79, 73.62 80.87, 19.69 78.75 M19.69 78.75 C4.91 79.98, -0.98 71.43, 0 59.06 M19.69 78.75 C7.84 79.69, -0.53 72.42, 0 59.06 M0 59.06 C0.12 43.7, 1.48 30.82, 0 19.69 M0 59.06 C0.13 49.21, 0.78 39.35, 0 19.69 M0 19.69 C0.78 7.23, 7.7 0.88, 19.69 0 M0 19.69 C1.6 8.83, 5.41 2.15, 19.69 0" stroke="#000000" stroke-width="1" fill="none"></path></g><g transform="translate(1056.25 922.5) rotate(0 89.86394500732422 10)"><text x="0" y="0" font-family="Virgil, Segoe UI Emoji" font-size="16px" fill="#000000" text-anchor="start" style="white-space: pre;" direction="ltr" dominant-baseline="text-before-edge">calories burn (optional)</text></g><g stroke-linecap="round" transform="translate(993.75 998.75) rotate(0 141.25 34.375)"><path d="M17.19 0 C83.88 -2.25, 150.34 0.25, 265.31 0 M17.19 0 C77.04 -1.73, 138.96 -1.26, 265.31 0 M265.31 0 C277.25 0.5, 283.14 6.63, 282.5 17.19 M265.31 0 C275.12 2.01, 284.74 8.01, 282.5 17.19 M282.5 17.19 C280.81 24.83, 284.38 36.01, 282.5 51.56 M282.5 17.19 C283.13 26.52, 283.35 35.49, 282.5 51.56 M282.5 51.56 C282.74 63.23, 278.01 68.75, 265.31 68.75 M282.5 51.56 C282.09 62.31, 277.82 66.83, 265.31 68.75 M265.31 68.75 C208.73 69.65, 150.04 68.69, 17.19 68.75 M265.31 68.75 C173.64 69.57, 80.4 68.19, 17.19 68.75 M17.19 68.75 C4.87 69.33, -0.78 63.88, 0 51.56 M17.19 68.75 C7.37 68.44, -2.15 61.96, 0 51.56 M0 51.56 C-1.26 39.93, -1 28.71, 0 17.19 M0 51.56 C-0.73 43.69, 0.57 33.68, 0 17.19 M0 17.19 C-0.63 7.5, 4.35 -1.9, 17.19 0 M0 17.19 C-2.06 7.43, 4 0.69, 17.19 0" stroke="#000000" stroke-width="1" fill="none"></path></g><g transform="translate(1003.75 1017.5) rotate(0 133.02392578125 10)"><text x="0" y="0" font-family="Virgil, Segoe UI Emoji" font-size="16px" fill="#000000" text-anchor="start" style="white-space: pre;" direction="ltr" dominant-baseline="text-before-edge">distance/time (optional) textarea</text></g><g stroke-linecap="round"><g transform="translate(690 257.5) rotate(0 -243.75 202.5)"><path d="M-0.31 0.35 C-81.55 67.73, -405.68 337.45, -486.91 404.74 M1.72 -0.51 C-79.66 67.01, -405.84 338.57, -487.55 406.14" stroke="#000000" stroke-width="1" fill="none"></path></g><g transform="translate(690 257.5) rotate(0 -243.75 202.5)"><path d="M-474.94 384.56 C-478.58 392.88, -483.91 398.95, -487.55 406.14 M-474.94 384.56 C-476.8 390.08, -479.85 394.48, -487.55 406.14" stroke="#000000" stroke-width="1" fill="none"></path></g><g transform="translate(690 257.5) rotate(0 -243.75 202.5)"><path d="M-464.02 397.71 C-471.44 401.51, -480.5 403.09, -487.55 406.14 M-464.02 397.71 C-468.32 400.21, -473.79 401.69, -487.55 406.14" stroke="#000000" stroke-width="1" fill="none"></path></g></g><mask></mask><g stroke-linecap="round" transform="translate(35 693.75) rotate(0 141.25 256.875)"><path d="M32 0 C116.24 1.47, 197.23 1.37, 250.5 0 M32 0 C101.37 -0.34, 171.97 -1.23, 250.5 0 M250.5 0 C270.15 -1.87, 284.06 11.71, 282.5 32 M250.5 0 C274.09 -1.66, 284.52 12.73, 282.5 32 M282.5 32 C281.2 131.75, 282.1 233.23, 282.5 481.75 M282.5 32 C283.16 155.85, 283.09 280.37, 282.5 481.75 M282.5 481.75 C282.13 503.3, 273.4 514.58, 250.5 513.75 M282.5 481.75 C284.6 503, 271.71 511.66, 250.5 513.75 M250.5 513.75 C164.84 513.7, 74.98 511.88, 32 513.75 M250.5 513.75 C175.03 514.12, 98.52 513.56, 32 513.75 M32 513.75 C12.05 513.13, 1.43 501.47, 0 481.75 M32 513.75 C11.28 515.02, 0.68 501.49, 0 481.75 M0 481.75 C-1.32 312.15, 0.43 141.96, 0 32 M0 481.75 C-1.17 366.33, -1.05 250.96, 0 32 M0 32 C0.16 12.31, 9.76 -1.33, 32 0 M0 32 C2.06 10.22, 12.59 -1.32, 32 0" stroke="#000000" stroke-width="1" fill="none"></path></g><g transform="translate(72.5 722.5) rotate(0 47.687965393066406 30)"><text x="0" y="0" font-family="Virgil, Segoe UI Emoji" font-size="16px" fill="#000000" text-anchor="start" style="white-space: pre;" direction="ltr" dominant-baseline="text-before-edge">user details</text><text x="0" y="20" font-family="Virgil, Segoe UI Emoji" font-size="16px" fill="#000000" text-anchor="start" style="white-space: pre;" direction="ltr" dominant-baseline="text-before-edge"></text><text x="0" y="40" font-family="Virgil, Segoe UI Emoji" font-size="16px" fill="#000000" text-anchor="start" style="white-space: pre;" direction="ltr" dominant-baseline="text-before-edge"></text></g><g stroke-linecap="round" transform="translate(56.25 771.25) rotate(0 81.875 35)"><path d="M17.5 0 C54.46 2.3, 92.55 0.27, 146.25 0 M17.5 0 C51.58 -0.42, 85.55 -1.12, 146.25 0 M146.25 0 C158.22 0.95, 161.91 6.36, 163.75 17.5 M146.25 0 C158.67 -1.96, 162.23 6.55, 163.75 17.5 M163.75 17.5 C164.23 29.3, 164.52 39.19, 163.75 52.5 M163.75 17.5 C164.66 28.21, 164.67 37.33, 163.75 52.5 M163.75 52.5 C165.18 65.26, 159.26 68.54, 146.25 70 M163.75 52.5 C163.98 62.29, 159.13 68.81, 146.25 70 M146.25 70 C117.49 69.12, 89.07 71.17, 17.5 70 M146.25 70 C109.75 70.81, 73.69 70.04, 17.5 70 M17.5 70 C7.48 71.46, -0.73 65.02, 0 52.5 M17.5 70 C6.25 70.78, 1.17 64.69, 0 52.5 M0 52.5 C-0.8 41.08, 1.6 34.35, 0 17.5 M0 52.5 C0.66 44.97, -0.44 36.5, 0 17.5 M0 17.5 C-0.21 7.69, 5.2 1.41, 17.5 0 M0 17.5 C-1.41 7.73, 5.88 0.4, 17.5 0" stroke="#000000" stroke-width="1" fill="none"></path></g><g transform="translate(97.72502136230469 796.25) rotate(0 40.39997863769531 10)"><text x="40.39997863769531" y="0" font-family="Virgil, Segoe UI Emoji" font-size="16px" fill="#000000" text-anchor="middle" style="white-space: pre;" direction="ltr" dominant-baseline="text-before-edge">text area</text></g><g stroke-linecap="round" transform="translate(60 921.25) rotate(0 77.5 35)"><path d="M17.5 0 C61.13 -1.84, 100.56 0.91, 137.5 0 M17.5 0 C44.79 -1.25, 70.08 -0.25, 137.5 0 M137.5 0 C149.83 1.86, 155.79 3.84, 155 17.5 M137.5 0 C150.55 -1.81, 153.4 7.13, 155 17.5 M155 17.5 C155.08 29, 152.87 37.96, 155 52.5 M155 17.5 C155.68 29.64, 154.35 42.7, 155 52.5 M155 52.5 C155.72 63.8, 150.41 70.54, 137.5 70 M155 52.5 C154.57 63.18, 148.89 68.22, 137.5 70 M137.5 70 C111.6 68.23, 88.14 69.02, 17.5 70 M137.5 70 C103.06 70.24, 70.4 71.84, 17.5 70 M17.5 70 C6.85 71.54, -1.31 63.88, 0 52.5 M17.5 70 C4.7 72.1, 2.24 65.38, 0 52.5 M0 52.5 C0.22 46.09, 1.51 37.83, 0 17.5 M0 52.5 C0.73 44.87, 1.2 35, 0 17.5 M0 17.5 C-0.56 6.71, 4.41 -0.08, 17.5 0 M0 17.5 C-2.27 3.97, 4.27 0.79, 17.5 0" stroke="#000000" stroke-width="1" fill="none"></path></g><g stroke-linecap="round" transform="translate(53.75 1055) rotate(0 78.125 37.5)"><path d="M18.75 0 C65.3 1.52, 108.03 2.17, 137.5 0 M18.75 0 C59.09 0.05, 100.94 -0.3, 137.5 0 M137.5 0 C148.78 -1.42, 156.05 6.58, 156.25 18.75 M137.5 0 C149.54 1.95, 156.18 8.16, 156.25 18.75 M156.25 18.75 C155.05 33.01, 154.87 45.49, 156.25 56.25 M156.25 18.75 C157.37 26.78, 157.34 34.68, 156.25 56.25 M156.25 56.25 C155.1 67.72, 148.47 76.23, 137.5 75 M156.25 56.25 C155.72 67.15, 150.95 74.87, 137.5 75 M137.5 75 C107.13 73.92, 79.16 74.39, 18.75 75 M137.5 75 C111.53 75.14, 84.9 75.51, 18.75 75 M18.75 75 C6.25 74.53, 0.48 69.28, 0 56.25 M18.75 75 C8.43 75.28, 1.36 66.58, 0 56.25 M0 56.25 C1.47 43.77, 1.13 33.46, 0 18.75 M0 56.25 C0.08 48.03, -0.02 37.09, 0 18.75 M0 18.75 C-1.22 4.71, 7.71 1.62, 18.75 0 M0 18.75 C2.08 7.19, 6.27 -1.12, 18.75 0" stroke="#000000" stroke-width="1" fill="none"></path></g><g transform="translate(108.75 945) rotate(0 40.39997863769531 10)"><text x="0" y="0" font-family="Virgil, Segoe UI Emoji" font-size="16px" fill="#000000" text-anchor="start" style="white-space: pre;" direction="ltr" dominant-baseline="text-before-edge">text area</text></g><g transform="translate(85 1075) rotate(0 40.39997863769531 10)"><text x="0" y="0" font-family="Virgil, Segoe UI Emoji" font-size="16px" fill="#000000" text-anchor="start" style="white-space: pre;" direction="ltr" dominant-baseline="text-before-edge">text area</text></g><g transform="translate(95 867.5) rotate(0 16.67998504638672 10)"><text x="0" y="0" font-family="Virgil, Segoe UI Emoji" font-size="16px" fill="#000000" text-anchor="start" style="white-space: pre;" direction="ltr" dominant-baseline="text-before-edge">rest</text></g><g transform="translate(102.5 1013.75) rotate(0 16.67998504638672 10)"><text x="0" y="0" font-family="Virgil, Segoe UI Emoji" font-size="16px" fill="#000000" text-anchor="start" style="white-space: pre;" direction="ltr" dominant-baseline="text-before-edge">rest</text></g><g transform="translate(101.25 1143.75) rotate(0 16.67998504638672 10)"><text x="0" y="0" font-family="Virgil, Segoe UI Emoji" font-size="16px" fill="#000000" text-anchor="start" style="white-space: pre;" direction="ltr" dominant-baseline="text-before-edge">rest</text></g><g stroke-linecap="round" transform="translate(183.75 1154.375) rotate(0 60 19.375)"><path d="M9.69 0 C37.44 2.11, 60.14 0.23, 110.31 0 M9.69 0 C41.22 -0.08, 71.31 0.08, 110.31 0 M110.31 0 C117.73 -1.68, 119.62 1.73, 120 9.69 M110.31 0 C119 -1.35, 119.83 1.09, 120 9.69 M120 9.69 C121.53 16.8, 118.47 22.34, 120 29.06 M120 9.69 C119.6 15.39, 119.49 21.56, 120 29.06 M120 29.06 C119.03 34.78, 117.61 37.37, 110.31 38.75 M120 29.06 C119.38 33.97, 116.35 38.28, 110.31 38.75 M110.31 38.75 C80.75 36.9, 54.93 38.9, 9.69 38.75 M110.31 38.75 C75.41 38.03, 39.44 39.4, 9.69 38.75 M9.69 38.75 C3.59 38.71, -1.24 37.39, 0 29.06 M9.69 38.75 C3.49 40.97, -0.97 34.28, 0 29.06 M0 29.06 C1.17 23.22, 0.48 20.81, 0 9.69 M0 29.06 C-0.27 22.74, -0.38 14.34, 0 9.69 M0 9.69 C1.55 3.4, 1.42 0.48, 9.69 0 M0 9.69 C-1.31 5.27, 3.83 -1.75, 9.69 0" stroke="#000000" stroke-width="1" fill="none"></path></g><g transform="translate(200.55003356933594 1161.25) rotate(0 43.19996643066406 12.5)"><text x="43.19996643066406" y="0" font-family="Virgil, Segoe UI Emoji" font-size="20px" fill="#000000" text-anchor="middle" style="white-space: pre;" direction="ltr" dominant-baseline="text-before-edge">save btn</text></g><g stroke-linecap="round" transform="translate(1152.5 1135.625) rotate(0 60 19.375)"><path d="M9.69 0 C38.31 -0.77, 66.3 0.31, 110.31 0 M9.69 0 C40.52 0.17, 70.13 0.82, 110.31 0 M110.31 0 C116.16 -1.33, 118.56 2.62, 120 9.69 M110.31 0 C114.84 -2.24, 118.04 0.97, 120 9.69 M120 9.69 C120.97 16.51, 118.39 19.21, 120 29.06 M120 9.69 C119.26 13.26, 119.89 17.29, 120 29.06 M120 29.06 C118.22 35.72, 118.51 40.14, 110.31 38.75 M120 29.06 C119.69 35.97, 118.48 37.71, 110.31 38.75 M110.31 38.75 C79.56 39.01, 47.44 41.33, 9.69 38.75 M110.31 38.75 C87.63 38.99, 64.85 37.78, 9.69 38.75 M9.69 38.75 C4.89 39.79, -0.94 36.2, 0 29.06 M9.69 38.75 C2.68 37.99, -1.28 33.86, 0 29.06 M0 29.06 C-0.23 24.68, -1.43 17.62, 0 9.69 M0 29.06 C0.85 23.16, 0.08 18.64, 0 9.69 M0 9.69 C0.53 1.53, 2.62 -1.01, 9.69 0 M0 9.69 C-2 5.09, 3.69 0.57, 9.69 0" stroke="#000000" stroke-width="1" fill="none"></path></g><g transform="translate(1169.300033569336 1142.5) rotate(0 43.19996643066406 12.5)"><text x="43.19996643066406" y="0" font-family="Virgil, Segoe UI Emoji" font-size="20px" fill="#000000" text-anchor="middle" style="white-space: pre;" direction="ltr" dominant-baseline="text-before-edge">save btn</text></g><g stroke-linecap="round" transform="translate(41.25 1288.75) rotate(0 167.5 243.75)"><path d="M32 0 C91.58 1.34, 151.01 -0.56, 303 0 M32 0 C136.1 0.81, 239.4 0.56, 303 0 M303 0 C322.89 -0.27, 336.66 9.93, 335 32 M303 0 C324.25 1.38, 333.5 10.26, 335 32 M335 32 C334.62 146.98, 333.78 263.46, 335 455.5 M335 32 C332.84 169.9, 333.54 308.81, 335 455.5 M335 455.5 C335.5 475.26, 323.43 485.72, 303 487.5 M335 455.5 C335.25 475.44, 324.42 487.67, 303 487.5 M303 487.5 C243.75 488.77, 183.26 488.87, 32 487.5 M303 487.5 C197.61 489.46, 91.62 489.96, 32 487.5 M32 487.5 C11.41 488.54, -0.19 478.61, 0 455.5 M32 487.5 C8.62 486.5, 0.25 476.72, 0 455.5 M0 455.5 C1.95 307.39, 1.05 160.57, 0 32 M0 455.5 C-1.3 299.9, -1.28 144.99, 0 32 M0 32 C0.24 11.09, 9.41 -0.9, 32 0 M0 32 C-0.86 12.21, 9.69 1.85, 32 0" stroke="#000000" stroke-width="1" fill="none"></path></g><g transform="translate(65 1312.5) rotate(0 49.18396759033203 30)"><text x="0" y="0" font-family="Virgil, Segoe UI Emoji" font-size="16px" fill="#000000" text-anchor="start" style="white-space: pre;" direction="ltr" dominant-baseline="text-before-edge">day summary</text><text x="0" y="20" font-family="Virgil, Segoe UI Emoji" font-size="16px" fill="#000000" text-anchor="start" style="white-space: pre;" direction="ltr" dominant-baseline="text-before-edge"></text><text x="0" y="40" font-family="Virgil, Segoe UI Emoji" font-size="16px" fill="#000000" text-anchor="start" style="white-space: pre;" direction="ltr" dominant-baseline="text-before-edge">workout</text></g><g stroke-linecap="round" transform="translate(42.5 1407.5) rotate(0 76.875 91.25)"><path d="M32 0 C56.18 1.26, 79.49 -1.4, 121.75 0 M32 0 C52.81 0.11, 73.77 0.7, 121.75 0 M121.75 0 C143.56 1.74, 153.31 9.75, 153.75 32 M121.75 0 C144.4 -0.69, 155.42 10.66, 153.75 32 M153.75 32 C152.6 57.58, 152.28 81.39, 153.75 150.5 M153.75 32 C152.88 73.8, 152.08 117.15, 153.75 150.5 M153.75 150.5 C154.88 170.68, 142.46 183.41, 121.75 182.5 M153.75 150.5 C151.49 171.79, 144.96 181.58, 121.75 182.5 M121.75 182.5 C100.44 182.09, 78.38 185.07, 32 182.5 M121.75 182.5 C84.96 182.15, 50.09 182.45, 32 182.5 M32 182.5 C11.4 183.37, 0.51 170.69, 0 150.5 M32 182.5 C8.6 180.55, -0.54 173.48, 0 150.5 M0 150.5 C2.31 111.14, -0.29 70.35, 0 32 M0 150.5 C-1.41 107.87, -1.6 65.39, 0 32 M0 32 C-0.46 10.84, 9.56 -1.74, 32 0 M0 32 C-1.25 11.97, 9.92 -0.99, 32 0" stroke="#000000" stroke-width="1" fill="none"></path></g><g transform="translate(268.75 1355) rotate(0 17.303985595703125 10)"><text x="0" y="0" font-family="Virgil, Segoe UI Emoji" font-size="16px" fill="#000000" text-anchor="start" style="white-space: pre;" direction="ltr" dominant-baseline="text-before-edge">food</text></g><g stroke-linecap="round" transform="translate(232.5 1402.5) rotate(0 63.74999999999997 93.125)"><path d="M31.87 0 C47.03 -1.3, 63.44 -0.1, 95.62 0 M31.87 0 C56.37 0.76, 81.42 0.61, 95.62 0 M95.62 0 C117.79 0.72, 126.04 10.04, 127.5 31.87 M95.62 0 C118.14 0.6, 129.65 10.28, 127.5 31.87 M127.5 31.87 C125.27 59.8, 126.52 89.91, 127.5 154.38 M127.5 31.87 C127.43 58.01, 127.86 86.15, 127.5 154.38 M127.5 154.38 C129.19 177.15, 118.86 186.14, 95.62 186.25 M127.5 154.38 C126.52 177.7, 115.14 187.47, 95.62 186.25 M95.62 186.25 C74.09 185.39, 54.88 185.78, 31.87 186.25 M95.62 186.25 C70.71 186.86, 46.22 185.15, 31.87 186.25 M31.87 186.25 C11.88 186.65, -1.08 177.3, 0 154.38 M31.87 186.25 C8.6 187.22, 1.64 174.43, 0 154.38 M0 154.38 C0.77 113.96, -0.39 74.27, 0 31.87 M0 154.38 C1.09 124.41, 0.5 95.73, 0 31.87 M0 31.87 C0.32 11.99, 10.13 0.02, 31.87 0 M0 31.87 C-0.47 11.21, 11.3 0.31, 31.87 0" stroke="#000000" stroke-width="1" fill="none"></path></g><g stroke-linecap="round" transform="translate(231.25 1688.125) rotate(0 60 19.375)"><path d="M9.69 0 C39.27 1.39, 66.38 0.72, 110.31 0 M9.69 0 C33.86 -0.85, 58.31 -0.8, 110.31 0 M110.31 0 C114.85 -1.98, 119.81 4.73, 120 9.69 M110.31 0 C118.22 -0.49, 121.53 2.89, 120 9.69 M120 9.69 C121.23 15.84, 121.04 21.94, 120 29.06 M120 9.69 C120.85 16.2, 120.31 21.68, 120 29.06 M120 29.06 C121.93 36.84, 115.53 40.37, 110.31 38.75 M120 29.06 C119.93 34.08, 118.84 37.52, 110.31 38.75 M110.31 38.75 C79.56 39.9, 50.58 41.21, 9.69 38.75 M110.31 38.75 C84.15 38.87, 60.5 40.56, 9.69 38.75 M9.69 38.75 C2.23 37.95, 1.02 33.62, 0 29.06 M9.69 38.75 C3.25 38.9, -1.64 34.88, 0 29.06 M0 29.06 C1.23 21.01, 1.37 14.95, 0 9.69 M0 29.06 C-0.45 24.74, 0.02 19.93, 0 9.69 M0 9.69 C-0.72 4.94, 3.66 -0.17, 9.69 0 M0 9.69 C0.86 3.09, 0.94 1.16, 9.69 0" stroke="#000000" stroke-width="1" fill="none"></path></g><g transform="translate(248.05003356933594 1695) rotate(0 43.19996643066406 12.5)"><text x="43.19996643066406" y="0" font-family="Virgil, Segoe UI Emoji" font-size="20px" fill="#000000" text-anchor="middle" style="white-space: pre;" direction="ltr" dominant-baseline="text-before-edge">save btn</text></g><g transform="translate(852.5 42.5) rotate(0 32.89598083496094 10)"><text x="0" y="0" font-family="Virgil, Segoe UI Emoji" font-size="16px" fill="#000000" text-anchor="start" style="white-space: pre;" direction="ltr" dominant-baseline="text-before-edge">calendar</text></g><g stroke-linecap="round"><g transform="translate(403.75 1475) rotate(0 106.875 -0.625)"><path d="M-1.08 0.41 C34.71 0.23, 178.79 -1.61, 214.76 -2.08 M0.56 -0.42 C36.27 -0.39, 178.69 -0.77, 214.34 -0.97" stroke="#000000" stroke-width="1" fill="none"></path></g><g transform="translate(403.75 1475) rotate(0 106.875 -0.625)"><path d="M190.89 7.67 C198.79 6.93, 203.87 4.28, 214.34 -0.97 M190.89 7.67 C195.9 5.3, 200.81 4.63, 214.34 -0.97" stroke="#000000" stroke-width="1" fill="none"></path></g><g transform="translate(403.75 1475) rotate(0 106.875 -0.625)"><path d="M190.82 -9.43 C198.6 -4.96, 203.7 -2.41, 214.34 -0.97 M190.82 -9.43 C195.86 -8.27, 200.79 -5.4, 214.34 -0.97" stroke="#000000" stroke-width="1" fill="none"></path></g></g><mask></mask><g stroke-linecap="round" transform="translate(702.5 1282.5) rotate(0 216.25 256.25)"><path d="M32 0 C137.46 -1.65, 243.71 -0.73, 400.5 0 M32 0 C172.42 2.04, 311.83 2.27, 400.5 0 M400.5 0 C423.18 -0.68, 432.4 12.55, 432.5 32 M400.5 0 C423.37 -1.02, 431.02 11.88, 432.5 32 M432.5 32 C431.43 174.81, 431.45 316.55, 432.5 480.5 M432.5 32 C430.85 148.95, 430.91 266.66, 432.5 480.5 M432.5 480.5 C431.51 502.92, 421.11 511.1, 400.5 512.5 M432.5 480.5 C433.02 501.68, 422.41 510.44, 400.5 512.5 M400.5 512.5 C303.47 511.47, 205.19 510.9, 32 512.5 M400.5 512.5 C269.31 510.67, 137.04 510.61, 32 512.5 M32 512.5 C11.28 513.12, 0.49 503.64, 0 480.5 M32 512.5 C12.7 514.14, 0.25 503.22, 0 480.5 M0 480.5 C0.45 342.82, 1.27 206.07, 0 32 M0 480.5 C1.39 376.56, 2.09 271.53, 0 32 M0 32 C-0.58 9.62, 10.79 -0.1, 32 0 M0 32 C-1.34 10.59, 12.94 -1.98, 32 0" stroke="#000000" stroke-width="1" fill="none"></path></g><g transform="translate(773.75 1308.75) rotate(0 69.3519515991211 20)"><text x="0" y="0" font-family="Virgil, Segoe UI Emoji" font-size="16px" fill="#000000" text-anchor="start" style="white-space: pre;" direction="ltr" dominant-baseline="text-before-edge">user details page</text><text x="0" y="20" font-family="Virgil, Segoe UI Emoji" font-size="16px" fill="#000000" text-anchor="start" style="white-space: pre;" direction="ltr" dominant-baseline="text-before-edge"></text></g><g stroke-linecap="round" transform="translate(730 1347.5) rotate(0 81.25 17.5)"><path d="M8.75 0 C57.35 0.92, 106.99 1.07, 153.75 0 M8.75 0 C63.77 -2.14, 121.16 -1.52, 153.75 0 M153.75 0 C159.82 -0.8, 162.26 4, 162.5 8.75 M153.75 0 C159.83 1.98, 161.31 1.92, 162.5 8.75 M162.5 8.75 C164.09 15.41, 162.68 20.85, 162.5 26.25 M162.5 8.75 C162.73 14.47, 162.07 21.77, 162.5 26.25 M162.5 26.25 C162.51 33.23, 159.24 35.63, 153.75 35 M162.5 26.25 C162.23 30.21, 158.4 37.21, 153.75 35 M153.75 35 C119.87 33.93, 85.88 37.32, 8.75 35 M153.75 35 C95.96 34.75, 37.89 34.31, 8.75 35 M8.75 35 C1.45 33.31, -0.16 32.02, 0 26.25 M8.75 35 C3.75 35.79, -2.04 30.38, 0 26.25 M0 26.25 C0.78 21.7, 0.82 16.26, 0 8.75 M0 26.25 C-0.01 19.71, -0.43 14.13, 0 8.75 M0 8.75 C-0.23 2.24, 4.55 -1.39, 8.75 0 M0 8.75 C-2.11 3.89, 5.11 -0.82, 8.75 0" stroke="#000000" stroke-width="1" fill="none"></path></g><g transform="translate(746.25 1356.25) rotate(0 65.18396759033203 10)"><text x="0" y="0" font-family="Virgil, Segoe UI Emoji" font-size="16px" fill="#000000" text-anchor="start" style="white-space: pre;" direction="ltr" dominant-baseline="text-before-edge">choose the date</text></g><g stroke-linecap="round" transform="translate(720 1403.75) rotate(0 90 113.75)"><path d="M32 0 C63.48 -0.07, 99.6 1.31, 148 0 M32 0 C60.2 -0.43, 89.85 -0.26, 148 0 M148 0 C168.83 0.26, 181.26 9.63, 180 32 M148 0 C169.03 0.57, 179.73 10.69, 180 32 M180 32 C180.27 65.85, 179.82 100.19, 180 195.5 M180 32 C178.78 77.88, 180.24 124.95, 180 195.5 M180 195.5 C181.06 218.08, 168.84 229.27, 148 227.5 M180 195.5 C181.95 216.84, 171.61 227.98, 148 227.5 M148 227.5 C124.4 227.56, 99.39 228.3, 32 227.5 M148 227.5 C118.07 228.6, 88.73 228.91, 32 227.5 M32 227.5 C11.55 228.2, 1.71 215.88, 0 195.5 M32 227.5 C10.26 228.2, -0.36 216.83, 0 195.5 M0 195.5 C-2.48 134.37, -2.28 70.45, 0 32 M0 195.5 C-0.79 158.61, -1.61 123.7, 0 32 M0 32 C-0.02 8.74, 11.18 -1.02, 32 0 M0 32 C-2.04 11.59, 12.84 1.39, 32 0" stroke="#000000" stroke-width="1" fill="none"></path></g><g stroke-linecap="round" transform="translate(943.75 1402.5) rotate(0 79.375 118.75)"><path d="M32 0 C52.52 0.76, 72.19 -1.97, 126.75 0 M32 0 C58.71 0.29, 85.48 -1.43, 126.75 0 M126.75 0 C148.24 0.72, 157.45 11.08, 158.75 32 M126.75 0 C148.06 1.23, 157 9.89, 158.75 32 M158.75 32 C157.39 87.87, 157.99 144.01, 158.75 205.5 M158.75 32 C160.03 88.8, 159.89 146.84, 158.75 205.5 M158.75 205.5 C159.43 225.05, 146.85 235.92, 126.75 237.5 M158.75 205.5 C157.39 227.56, 145.89 239.29, 126.75 237.5 M126.75 237.5 C91.98 238.16, 59.89 238.2, 32 237.5 M126.75 237.5 C92.18 237.49, 57.71 237.81, 32 237.5 M32 237.5 C11.37 238.11, -0.91 227.24, 0 205.5 M32 237.5 C9.26 237.62, 1.03 228.37, 0 205.5 M0 205.5 C0.41 143.84, 1.99 80.09, 0 32 M0 205.5 C-2.37 147.43, -1.62 89.06, 0 32 M0 32 C-0.75 11.4, 12.25 0.64, 32 0 M0 32 C1.15 11.62, 10.28 0.82, 32 0" stroke="#000000" stroke-width="1" fill="none"></path></g><g transform="translate(730 1426.25) rotate(0 30.13597869873047 10)"><text x="0" y="0" font-family="Virgil, Segoe UI Emoji" font-size="16px" fill="#000000" text-anchor="start" style="white-space: pre;" direction="ltr" dominant-baseline="text-before-edge">workout</text></g><g transform="translate(976.25 1425) rotate(0 17.303985595703125 10)"><text x="0" y="0" font-family="Virgil, Segoe UI Emoji" font-size="16px" fill="#000000" text-anchor="start" style="white-space: pre;" direction="ltr" dominant-baseline="text-before-edge">food</text></g><g stroke-linecap="round" transform="translate(727.5 1666.25) rotate(0 185.625 48.125)"><path d="M24.06 0 C105.45 0.98, 184.7 -0.59, 347.19 0 M24.06 0 C135.79 2.33, 247.37 2.2, 347.19 0 M347.19 0 C362.53 0.4, 369.54 9.48, 371.25 24.06 M347.19 0 C363.19 1.98, 371.1 9.62, 371.25 24.06 M371.25 24.06 C372.15 41.88, 371.38 58.45, 371.25 72.19 M371.25 24.06 C372.23 33.75, 371.81 43.36, 371.25 72.19 M371.25 72.19 C370.78 86.61, 361.36 95.02, 347.19 96.25 M371.25 72.19 C373.48 90.34, 362.85 94.87, 347.19 96.25 M347.19 96.25 C272.93 95.71, 197.86 97.9, 24.06 96.25 M347.19 96.25 C248.18 94.83, 148.72 94.27, 24.06 96.25 M24.06 96.25 C9.01 96.36, 0.27 89.24, 0 72.19 M24.06 96.25 C8.59 94.98, 0.49 89.55, 0 72.19 M0 72.19 C-0.81 57.57, 2.36 44.43, 0 24.06 M0 72.19 C0.81 54.06, -1 36.76, 0 24.06 M0 24.06 C-1.01 8.45, 9.61 0.13, 24.06 0 M0 24.06 C-0.32 6.14, 6.94 -0.28, 24.06 0" stroke="#000000" stroke-width="1" fill="none"></path></g><g transform="translate(751.25 1682.5) rotate(0 68.51995849609375 20)"><text x="0" y="0" font-family="Virgil, Segoe UI Emoji" font-size="16px" fill="#000000" text-anchor="start" style="white-space: pre;" direction="ltr" dominant-baseline="text-before-edge">weight</text><text x="0" y="20" font-family="Virgil, Segoe UI Emoji" font-size="16px" fill="#000000" text-anchor="start" style="white-space: pre;" direction="ltr" dominant-baseline="text-before-edge">Other (textarea)</text></g></svg>